<?xml version="1.0" encoding="UTF-8" standalone="no"?>
<svg
   height="48"
   viewBox="0 96 960 960"
   width="48"
   version="1.1"
   id="svg4"
   sodipodi:docname="reset.svg"
   inkscape:version="1.2.2 (b0a8486541, 2022-12-01)"
   xmlns:inkscape="http://www.inkscape.org/namespaces/inkscape"
   xmlns:sodipodi="http://sodipodi.sourceforge.net/DTD/sodipodi-0.dtd"
   xmlns="http://www.w3.org/2000/svg"
   xmlns:svg="http://www.w3.org/2000/svg">
  <defs
     id="defs8" />
  <sodipodi:namedview
     id="namedview6"
     pagecolor="#ffffff"
     bordercolor="#666666"
     borderopacity="1.0"
     inkscape:showpageshadow="2"
     inkscape:pageopacity="0.0"
     inkscape:pagecheckerboard="true"
     inkscape:deskcolor="#d1d1d1"
     showgrid="false"
     inkscape:zoom="21.395833"
     inkscape:cx="18.484907"
     inkscape:cy="23.976631"
     inkscape:window-width="2560"
     inkscape:window-height="1371"
     inkscape:window-x="0"
     inkscape:window-y="32"
     inkscape:window-maximized="1"
     inkscape:current-layer="svg4" />
  <path
     d="M480 976q-143 0-245.5-95T121 646q-1-12 7.5-21t21.5-9q12 0 20.5 8.5T181 646q11 115 96 192.5T480 916q125 0 212.5-87.5T780 616q0-125-85-212.5T485 316h-22l52 52q9 9 9 21t-9 21q-9 9-21 9t-21-9L368 305q-5-5-7-10t-2-11q0-6 2-11t7-10l106-106q8-8 20-8t21 8q8 9 8 21t-8 20l-58 58h23q75 0 140.5 28T735 361q49 49 77 114.5T840 616q0 75-28 140.5T735 871q-49 49-114.5 77T480 976Z"
     id="path2"
     style="fill:#ffffff" />
</svg>
