<?xml version="1.0" encoding="UTF-8" standalone="no"?>
<!-- Created with Inkscape (http://www.inkscape.org/) -->

<svg
   width="115.00001mm"
   height="115mm"
   viewBox="0 0 115.00001 115"
   version="1.1"
   id="svg1047"
   inkscape:version="1.2.1 (9c6d41e410, 2022-07-14)"
   sodipodi:docname="seatax-logo-round-production.svg"
   inkscape:export-filename="seatax-logo-round-v4d.png"
   inkscape:export-xdpi="110.43478"
   inkscape:export-ydpi="110.43478"
   xml:space="preserve"
   xmlns:inkscape="http://www.inkscape.org/namespaces/inkscape"
   xmlns:sodipodi="http://sodipodi.sourceforge.net/DTD/sodipodi-0.dtd"
   xmlns="http://www.w3.org/2000/svg"
   xmlns:svg="http://www.w3.org/2000/svg"
   xmlns:rdf="http://www.w3.org/1999/02/22-rdf-syntax-ns#"
   xmlns:cc="http://creativecommons.org/ns#"
   xmlns:dc="http://purl.org/dc/elements/1.1/"><defs
     id="defs1041" /><sodipodi:namedview
     id="base"
     pagecolor="#ffffff"
     bordercolor="#666666"
     borderopacity="1.0"
     inkscape:pageopacity="0.0"
     inkscape:pageshadow="2"
     inkscape:zoom="0.55719885"
     inkscape:cx="283.56125"
     inkscape:cy="224.33643"
     inkscape:document-units="mm"
     inkscape:current-layer="layer1-2"
     showgrid="false"
     inkscape:pagecheckerboard="true"
     fit-margin-top="0"
     fit-margin-left="0"
     fit-margin-right="0"
     fit-margin-bottom="0"
     inkscape:window-width="957"
     inkscape:window-height="983"
     inkscape:window-x="953"
     inkscape:window-y="0"
     inkscape:window-maximized="0"
     inkscape:showpageshadow="2"
     inkscape:deskcolor="#d1d1d1"
     inkscape:lockguides="true"
     showguides="true"><sodipodi:guide
       position="130.61314,57.583942"
       orientation="0,-1"
       id="guide1609"
       inkscape:locked="true" /></sodipodi:namedview><metadata
     id="metadata1044"><rdf:RDF><cc:Work
         rdf:about=""><dc:format>image/svg+xml</dc:format><dc:type
           rdf:resource="http://purl.org/dc/dcmitype/StillImage" /></cc:Work></rdf:RDF></metadata><g
     inkscape:label="gedrittelter Kreis"
     id="layer1-2"
     transform="matrix(0.24424435,-0.14140044,0.14140044,0.24424435,-124.90138,29.83349)"
     style="display:inline"><circle
       style="fill:#91be20;fill-opacity:1;stroke:#ffffff;stroke-width:3.54331;stroke-miterlimit:4;stroke-dasharray:none;stroke-dashoffset:0;stroke-opacity:1"
       id="path4149-0"
       cx="510.71457"
       cy="408.7012"
       r="195.71428" /><path
       style="fill:#7f6000;fill-opacity:1;stroke:#ffffff;stroke-width:3.54331;stroke-miterlimit:4;stroke-dasharray:none;stroke-dashoffset:0;stroke-opacity:1"
       id="path4149-0-1"
       sodipodi:type="arc"
       sodipodi:cx="510"
       sodipodi:cy="408.07651"
       sodipodi:rx="195.71428"
       sodipodi:ry="195.71428"
       sodipodi:start="0.52359878"
       sodipodi:end="2.6179939"
       d="M 679.49354,505.93365 A 195.71428,195.71428 0 0 1 510,603.79079 195.71428,195.71428 0 0 1 340.50646,505.93364 L 510,408.07651 Z"
       sodipodi:arc-type="slice" /><path
       style="display:inline;fill:#b0242d;fill-opacity:1;stroke:#ffffff;stroke-width:3.54331;stroke-miterlimit:4;stroke-dasharray:none;stroke-dashoffset:0;stroke-opacity:1"
       id="path4149"
       sodipodi:type="arc"
       sodipodi:cx="509.99997"
       sodipodi:cy="408.07648"
       sodipodi:rx="195.71428"
       sodipodi:ry="195.71428"
       sodipodi:start="4.712389"
       sodipodi:end="0.52359878"
       d="m 509.99997,212.3622 a 195.71428,195.71428 0 0 1 169.49354,97.85714 195.71428,195.71428 0 0 1 0,195.71428 L 509.99997,408.07648 Z"
       sodipodi:arc-type="slice"
       transform="translate(1.3287401e-6)" /></g><path
     style="fill:#ffffff;fill-opacity:1;stroke-width:1.02106"
     d="m 62.016296,51.737162 c 0.602112,-0.62193 1.393874,-1.947178 1.987036,-2.702307 0.636705,-0.810566 1.065797,-1.048758 1.4308,-1.624248 0.573127,-0.903642 0.416079,-0.989555 1.074964,-2.016408 0.797609,-1.250661 1.384851,-2.705782 2.505359,-3.67778 0.365525,-0.317075 0.845398,-0.48284 1.303183,-0.639654 0.86566,-0.29655 1.775027,-0.499364 2.688354,-0.555601 1.035114,-0.06373 2.066821,0.327637 3.101066,0.251153 1.178684,-0.08715 2.321645,-0.462976 3.453601,-0.802956 1.15494,-0.346883 2.237574,-0.909276 3.392014,-1.257879 0.888152,-0.268181 1.781944,-0.604796 2.709108,-0.638272 0.655604,-0.02367 1.327852,0.0846 1.94319,0.31204 0.446787,0.16515 0.876608,0.414481 1.219125,0.745515 0.332603,0.321469 0.480296,0.793101 0.763775,1.158616 0.125706,0.161846 0.237351,0.349905 0.413065,0.455268 0.170612,0.102295 0.398866,0.230149 0.578771,0.145294 0.131054,-0.06185 0.154525,-0.251322 0.186463,-0.392652 0.07748,-0.342833 -0.25748,-0.816269 0.0011,-1.054452 0.254214,-0.234228 0.697035,0.162321 1.033677,0.08373 0.234801,-0.05481 0.525228,-0.150113 0.62064,-0.371556 0.07543,-0.175055 -0.01425,-0.402158 -0.123474,-0.558369 -0.154471,-0.220917 -0.429289,-0.340644 -0.681853,-0.434865 -0.267565,-0.09983 -0.567466,-0.06926 -0.847563,-0.124921 -0.334451,-0.06647 -0.71841,-0.0458 -0.992172,-0.249085 -0.161314,-0.119769 -0.406943,-0.341384 -0.309766,-0.517104 0.156891,-0.283462 0.657171,0.05776 0.971766,-0.01972 0.254372,-0.06265 0.445787,-0.302682 0.703316,-0.350795 0.367396,-0.06862 0.793703,-0.08416 1.116363,0.10448 0.260763,0.152474 0.214514,0.72918 0.516136,0.744835 0.12689,0.0066 0.21466,-0.16669 0.248382,-0.289212 0.07433,-0.269809 -0.115333,-0.54876 -0.143912,-0.827157 -0.02115,-0.205775 -0.12608,-0.442619 -0.02008,-0.620278 0.134222,-0.224997 0.554081,-0.135482 0.703325,-0.3508 0.114453,-0.165136 0.07959,-0.399319 0.06262,-0.599528 -0.01928,-0.228308 -0.01164,-0.512531 -0.185432,-0.661792 -0.173866,-0.149231 -0.453535,-0.097 -0.68219,-0.08342 -0.545623,0.0326 -1.067571,0.238551 -1.59239,0.391265 -0.454105,0.132135 -0.87764,0.377172 -1.344361,0.453543 -0.346866,0.05677 -0.731091,0.13674 -1.054441,-0.0011 -0.24664,-0.105046 -0.355344,-0.403605 -0.55767,-0.579463 -0.11563,-0.100338 -0.359824,-0.116606 -0.37191,-0.269134 -0.0392,-0.495529 0.6576,-0.755494 1.055502,-1.053428 0.836981,-0.626693 1.832943,-1.006699 2.751309,-1.506604 0.406278,-0.221145 0.974131,-0.268911 1.220502,-0.660413 0.07717,-0.122623 0.09256,-0.308108 0.0211,-0.434158 -0.05783,-0.101886 -0.204514,-0.11469 -0.309968,-0.165674 -0.155595,-0.07535 -0.318793,-0.13395 -0.475349,-0.207178 -0.237271,-0.111078 -0.449224,-0.285682 -0.702616,-0.352173 -0.140274,-0.03626 -0.295843,-0.06379 -0.434165,-0.02114 -0.173754,0.05389 -0.326844,0.183673 -0.434507,0.330365 -0.168969,0.230221 -0.13966,0.563409 -0.29024,0.806058 -0.120795,0.194661 -0.282332,0.373435 -0.476018,0.49574 -0.313269,0.197827 -0.690493,0.282988 -1.054809,0.35045 -0.291711,0.05403 -0.627731,0.18087 -0.889087,0.04049 -0.176993,-0.09511 -0.295473,-0.316775 -0.309771,-0.517112 -0.02629,-0.372828 0.177635,-0.762515 0.435193,-1.033342 0.305895,-0.321637 0.780301,-0.432558 1.199753,-0.577744 0.540388,-0.187058 1.143712,-0.159161 1.675072,-0.370505 0.224052,-0.0891 0.466412,-0.186202 0.620631,-0.371551 0.164581,-0.197807 0.261488,-0.466184 0.269492,-0.723382 0.0051,-0.165594 -0.03162,-0.354154 -0.144209,-0.475693 -0.155737,-0.168013 -0.474028,-0.09157 -0.640708,-0.248689 -0.132365,-0.124849 -0.181829,-0.320064 -0.227239,-0.496302 -0.04493,-0.174002 0.01358,-0.366322 -0.04082,-0.537601 -0.04908,-0.15304 -0.101999,-0.345839 -0.247643,-0.413788 -0.196146,-0.09143 -0.439712,0.02339 -0.64105,0.102756 -0.355653,0.140185 -0.65423,0.399876 -0.951691,0.639993 -0.208596,0.168381 -0.395347,0.362822 -0.579456,0.557674 -0.130935,0.138546 -0.182669,0.450022 -0.372592,0.433823 -0.240249,-0.02051 -0.311372,-0.387149 -0.371548,-0.620627 -0.101483,-0.394006 0.03155,-0.813111 0.04255,-1.219815 0.0102,-0.378977 0.186814,-0.795816 0.02179,-1.13713 -0.09436,-0.194737 -0.331682,-0.280762 -0.516504,-0.393334 -0.123798,-0.07532 -0.249636,-0.209756 -0.392662,-0.186423 -0.264585,0.04309 -0.374107,0.385342 -0.579453,0.557662 -0.170008,0.142666 -0.316986,0.371617 -0.537944,0.392305 -0.14427,0.01352 -0.256289,-0.13752 -0.392672,-0.186418 -0.187195,-0.06722 -0.381984,-0.174426 -0.578762,-0.145303 -0.278282,0.04113 -0.61275,0.175132 -0.724068,0.433467 -0.125715,0.291766 0.09901,0.631411 0.205827,0.930611 0.189547,0.531232 0.646019,0.958406 0.76343,1.510099 0.120715,0.56686 6.03e-4,1.163367 -0.08441,1.736657 -0.03752,0.252971 -0.07875,0.512342 -0.186806,0.744138 -0.258607,0.554768 -0.664313,1.035142 -1.07659,1.487578 -0.302615,0.332094 -0.654007,0.619171 -1.013964,0.888044 -0.660219,0.493159 -1.374149,0.912142 -2.089513,1.321186 -1.083701,0.619647 -2.212119,1.158044 -3.330436,1.712791 -1.157058,0.573972 -2.297967,1.188172 -3.495797,1.671279 -0.687207,0.277168 -1.381467,0.56339 -2.109594,0.7009 -0.379769,0.07172 -0.784142,0.159348 -1.157875,0.06089 -0.434514,-0.11431 -0.794801,-0.432966 -1.13645,-0.724754 -0.497441,-0.424853 -0.991526,-0.892949 -1.30111,-1.469236 -0.415372,-0.773166 -0.46492,-1.692782 -0.6798,-2.543748 -0.196079,-0.776314 -0.415432,-1.5486 -0.555935,-2.336875 -0.18152,-1.0183 -0.216975,-2.057915 -0.369138,-3.081012 -0.224522,-1.509663 -0.804477,-2.981769 -0.801923,-4.508039 0.0014,-0.854368 0.171344,-1.716886 0.457355,-2.521969 0.186863,-0.526065 0.469711,-1.022876 0.807775,-1.467162 0.262659,-0.345185 0.593487,-0.636729 0.931295,-0.908809 0.360256,-0.290151 0.719138,-0.619339 1.158577,-0.763856 0.367148,-0.120726 0.771711,-0.07687 1.15788,-0.06088 0.257097,0.01062 0.510537,0.06513 0.764878,0.104168 0.366209,0.05622 0.726507,0.219137 1.095612,0.187193 0.102015,-0.0088 0.220662,-0.02721 0.289535,-0.103143 0.114641,-0.126213 0.158755,-0.329061 0.124545,-0.496091 -0.03651,-0.178242 -0.239372,-0.276953 -0.33036,-0.434518 -0.07111,-0.123013 -0.183894,-0.252179 -0.165009,-0.393003 0.0372,-0.277376 0.415679,-0.400435 0.517526,-0.661097 0.06292,-0.161001 0.124657,-0.365126 0.04186,-0.516846 -0.05609,-0.102875 -0.200675,-0.123469 -0.309967,-0.165672 -0.159055,-0.0614 -0.329082,-0.15873 -0.496095,-0.124539 -0.356494,0.07303 -0.519756,0.558569 -0.869007,0.660752 -0.165887,0.04851 -0.370054,0.04938 -0.516841,-0.04189 -0.06833,-0.04237 -0.112021,-0.127433 -0.123384,-0.207137 -0.02081,-0.14053 0.02293,-0.296584 0.103787,-0.413411 0.171887,-0.248376 0.482302,-0.366748 0.744823,-0.516153 0.158108,-0.09003 0.388961,-0.08011 0.496414,-0.226969 0.135304,-0.184867 0.149215,-0.462779 0.08338,-0.682206 -0.07026,-0.234131 -0.278638,-0.41304 -0.474984,-0.558709 -0.138877,-0.102966 -0.302494,-0.208749 -0.475347,-0.207178 -0.181947,0.0016 -0.351035,0.117567 -0.496415,0.226969 -0.203095,0.152797 -0.296304,0.422211 -0.496785,0.578427 -0.206638,0.161007 -0.44286,0.322467 -0.703307,0.350789 -0.141242,0.01534 -0.291533,-0.03078 -0.413418,-0.103776 -0.0879,-0.05263 -0.202115,-0.125298 -0.206537,-0.227623 -0.0093,-0.216198 0.232024,-0.372235 0.393332,-0.516496 0.14977,-0.133954 0.370559,-0.172259 0.517222,-0.309604 0.177178,-0.165987 0.367394,-0.36093 0.414099,-0.599182 0.0122,-0.06236 -0.01994,-0.126246 -0.04119,-0.186114 -0.0875,-0.246935 -0.165714,-0.517887 -0.350777,-0.703308 -0.185017,-0.185458 -0.490252,-0.198772 -0.702626,-0.352168 -0.134306,-0.09707 -0.220419,-0.250005 -0.351138,-0.351832 -0.234017,-0.182338 -0.512027,-0.299893 -0.764552,-0.455604 -0.152946,-0.09434 -0.278021,-0.323553 -0.454565,-0.289915 -0.300642,0.05729 -0.436948,0.455011 -0.538289,0.74379 -0.09597,0.273437 -0.01114,0.580222 -0.04221,0.868338 -0.07635,0.70855 -0.207748,1.410962 -0.353549,2.108548 -0.07558,0.361588 -0.128127,0.733706 -0.26984,1.074862 -0.262048,0.630895 -0.668854,1.193615 -1.056171,1.756369 -0.158664,0.23054 -0.318259,0.464623 -0.517539,0.661113 -0.259119,0.255496 -0.532763,0.52163 -0.869021,0.660767 -0.282794,0.117002 -0.619299,0.219366 -0.909842,0.123154 -0.374739,-0.124128 -0.621568,-0.503699 -0.846875,-0.82785 -0.473672,-0.681465 -0.736094,-1.492182 -1.010861,-2.2753 -0.214618,-0.612059 -0.371314,-1.245122 -0.49436,-1.881952 -0.104158,-0.538819 -0.280017,-1.089896 -0.205155,-1.633566 0.051,-0.370261 0.461504,-0.660525 0.435201,-1.033346 C 60.078358,10.18416 59.955415,9.9706061 59.782802,9.8674478 59.658574,9.7929786 59.493443,9.8417201 59.348656,9.846302 59.106,9.8540808 58.865011,9.9643768 58.624928,9.9283004 58.454013,9.9025611 58.317236,9.7632029 58.149581,9.7211222 c -0.167643,-0.042081 -0.3798,-0.1471805 -0.516833,-0.041903 -0.338702,0.2603186 -0.01104,0.8933605 -0.228662,1.2609735 -0.07237,0.12227 -0.189773,0.253667 -0.331065,0.268458 -0.377057,0.03946 -0.657705,-0.384549 -1.012604,-0.517879 -0.133016,-0.04993 -0.271348,-0.107288 -0.4134,-0.103787 -0.165629,0.004 -0.350137,0.03615 -0.475684,0.14426 -0.1098,0.09456 -0.165942,0.249225 -0.186471,0.392658 -0.03066,0.214211 0.147118,0.428962 0.102744,0.641042 -0.03638,0.175965 -0.235389,0.283312 -0.289889,0.454569 -0.04403,0.138069 -0.111011,0.320539 -0.02111,0.43417 0.282626,0.357256 0.932798,0.05269 1.343658,0.24946 0.458466,0.219494 0.841554,0.594837 1.156851,0.993557 0.399556,0.505341 0.704931,1.099087 0.887339,1.716946 0.119584,0.405152 0.130896,0.838963 0.122821,1.261318 -0.0049,0.257274 0.02925,0.54485 -0.104126,0.764884 -0.135803,0.224045 -0.380709,0.428148 -0.641386,0.454236 -0.832062,0.08329 -1.53765,-0.658675 -2.293987,-1.01534 -0.473907,-0.223471 -0.927151,-0.48995 -1.405236,-0.704352 -0.392358,-0.175977 -0.80636,-0.300743 -1.198711,-0.476707 -0.239031,-0.107234 -0.445571,-0.301569 -0.70262,-0.352181 -0.176297,-0.03484 -0.410206,-0.08591 -0.537589,0.04082 -0.122529,0.121927 -0.0053,0.34792 -0.04187,0.51685 -0.06045,0.27911 -0.272001,0.521074 -0.290244,0.806055 -0.0081,0.126837 -0.0016,0.276828 0.08227,0.372267 0.188617,0.214431 0.53947,0.187886 0.806063,0.290212 0.18758,0.07201 0.405698,0.09661 0.558032,0.227933 0.09147,0.07856 0.215138,0.193376 0.185515,0.310462 -0.03917,0.155926 -0.260015,0.200818 -0.413746,0.247734 -0.369678,0.112727 -0.811032,-0.109582 -1.157876,0.06089 -0.171051,0.08412 -0.342964,0.245511 -0.372593,0.433823 -0.02215,0.140379 0.07667,0.281713 0.165006,0.392996 0.190303,0.239698 0.653538,0.245844 0.74378,0.538301 0.08425,0.272864 -0.371127,0.532177 -0.290241,0.80606 0.06124,0.207571 0.300459,0.38127 0.516506,0.393333 0.481464,0.02686 0.779128,-0.605312 1.241252,-0.743095 0.482544,-0.143865 1.012398,-0.141504 1.509376,-0.06055 0.480052,0.07823 0.937675,0.284188 1.364059,0.51824 0.647699,0.355432 1.266478,0.790722 1.776799,1.324963 0.500412,0.523872 0.880577,1.158926 1.218084,1.79997 0.455566,0.865149 0.745577,1.808706 1.072478,2.730197 0.379778,1.070171 0.600375,2.196147 1.030585,3.247066 0.328092,0.80154 0.771098,1.551309 1.176268,2.316793 0.526579,0.995196 1.096797,1.966775 1.630436,2.9582 0.343413,0.637894 0.741574,1.251398 1.011161,1.92384 0.232159,0.579049 0.447226,1.17911 0.515127,1.799267 0.05037,0.459826 -0.03556,0.925152 -0.08406,1.385179 -0.09281,0.880124 -0.156877,1.773151 -0.39542,2.625399 -0.255624,0.913315 -0.769227,1.735234 -1.098381,2.624707 -0.296506,0.801265 -0.552567,1.617665 -0.788059,2.438935 -0.164467,0.573616 -0.220961,1.17963 -0.435884,1.736304 -0.210996,0.546494 -0.784969,0.965665 -0.828542,1.549848 -0.01521,0.204333 0.0021,0.561017 0.205891,0.579222 z"
     id="path8972"
     sodipodi:nodetypes="csscssssssssssssssssssssssssssssssssssssssssssssssssssssssssssssssssssssssssssssssssssssssssssssssssssssssssssssssssssssssssssssssssssssssssssssssssssssssssssssssssssssssssssssssssssssssssssssssssssssssc"
     inkscape:label="Rotalge Chondrus crispus" /><path
     id="path1115"
     style="display:inline;opacity:1;fill:#ffffff;stroke:none;stroke-width:0.251579;stroke-dasharray:none;stroke-opacity:1"
     inkscape:label="Braunalge saccharina kelp"
     d="M 64.540763 60.938399 C 64.13936 60.932478 64.408742 61.464539 64.226571 62.233927 C 64.405718 62.843373 64.365997 63.541219 64.171794 63.476229 C 63.938379 63.065063 64.064742 62.691337 63.655546 62.58016 C 63.396418 62.339819 63.016055 61.656095 62.853528 62.445801 C 63.288902 62.879786 63.73886 63.845485 63.579065 64.186263 C 63.452027 64.457778 63.43739 64.579534 63.243168 64.774858 L 63.074703 63.929431 L 63.203894 63.450391 L 62.988403 63.278308 C 62.848677 63.389474 62.758086 63.610398 62.666976 63.830212 C 62.111238 63.454136 62.682335 62.83814 62.4427 62.7941 C 61.875428 62.634076 62.233756 62.059861 62.138326 62.005001 C 61.502165 61.838262 61.62129 61.222026 61.5611 61.075342 C 61.335892 61.00584 61.103301 60.87901 60.929097 61.203499 C 61.038979 61.431023 61.37447 61.882998 61.548698 62.121273 C 61.169991 62.359275 61.042006 62.8482 61.33114 62.89797 C 61.379894 63.11968 61.631545 62.761567 61.907849 62.63597 L 62.054093 63.096924 L 61.991048 63.474162 C 62.195674 63.776461 62.641054 64.692424 62.448901 65.024972 C 62.2264 64.965153 61.756088 65.180958 61.761088 64.437927 C 61.671465 64.206907 61.746534 63.752652 61.649984 63.531006 C 61.467416 63.530086 61.411929 63.557787 61.251558 63.589917 L 61.100146 64.091695 C 61.110986 64.433094 61.316499 65.005385 61.013847 64.974845 C 60.924679 64.785895 60.728586 64.70682 60.675366 64.427075 C 60.52406 64.436405 60.564882 65.057078 60.196326 64.34801 C 59.845039 64.311537 60.348734 65.143828 59.856812 65.180518 C 59.512502 65.084782 59.559257 64.668892 59.453735 64.571252 C 59.377136 64.500263 59.061805 64.702115 59.012935 64.520093 C 59.23816 64.362829 59.337242 64.064579 59.127657 63.734094 C 59.278718 63.52501 59.515989 63.695434 59.40826 63.055583 C 59.072279 62.908006 58.974704 63.307412 58.818115 63.352722 C 58.582564 63.420872 58.564207 63.132363 58.064673 63.333602 C 57.984907 63.564685 58.531952 63.577526 58.667737 63.787321 C 58.750025 63.914472 58.402086 64.165825 58.471366 64.433793 C 58.529728 64.65925 58.756537 65.006084 59.101819 65.000684 C 59.036498 65.340804 59.572616 65.655563 59.90177 65.594963 C 59.566056 65.793541 59.231354 65.980526 58.874443 66.415068 C 58.657989 66.0328 58.60784 65.445949 58.166992 65.340198 C 58.092635 65.545895 58.42262 66.163041 58.383 66.254871 C 58.080453 66.14497 57.642948 65.872575 57.476595 65.926725 C 57.471476 66.029854 57.427774 66.584642 57.711723 66.491032 C 58.004979 66.394418 58.199239 66.822383 58.454313 67.144222 C 58.671468 67.418827 59.055125 66.618938 59.395858 66.398014 C 59.623989 66.250042 60.054653 65.827359 60.227848 65.895719 C 60.364164 65.949493 60.4649 65.46082 60.53739 65.50918 C 60.651741 65.585349 62.140322 65.561112 62.118172 65.818205 C 62.105556 65.963989 60.918857 65.939559 60.757532 66.067285 C 60.64499 66.156461 60.679891 66.226747 60.593201 66.354089 C 60.529632 66.447409 60.350801 66.587194 60.249552 66.707039 C 60.09365 66.891477 61.07129 66.481248 61.06449 66.62384 C 61.05427 66.842025 60.211529 67.423546 60.194259 67.483736 C 60.130321 67.706868 60.525365 67.606129 60.547725 67.809814 C 60.576603 68.073869 60.264637 68.613051 60.470728 68.586511 C 60.654833 68.562741 60.857257 68.498597 60.874837 68.335364 C 60.908823 68.021913 61.02735 67.469761 61.246391 67.14939 C 61.305333 67.335342 61.360449 67.428097 61.584355 67.303902 C 61.661844 67.290293 61.720153 66.877199 61.788993 66.865169 C 63.189092 66.620817 62.699551 66.763236 62.996672 67.460482 C 63.000456 67.46675 63.004993 67.472598 63.009074 67.478569 C 63.089925 67.660041 63.189445 67.803796 63.29071 67.931254 C 65.396582 70.581345 68.347878 66.336637 70.163676 67.709045 C 71.105882 68.42118 71.244747 71.083 71.244747 71.083 C 69.158036 74.022599 68.47377 73.778379 67.582955 74.002718 C 65.643613 75.505092 64.530894 74.24089 60.996277 74.22596 C 60.447451 74.559353 60.111506 75.270204 59.519881 75.508569 C 58.885722 75.764091 58.094736 75.342026 57.602686 75.765401 C 57.035084 76.449057 57.227774 77.463091 56.783614 77.919792 C 56.451401 78.261378 55.644335 77.92307 55.241073 78.254655 C 54.479851 78.880537 54.849161 79.956449 54.167753 79.898999 C 53.264162 79.82282 52.384489 79.641423 52.434009 80.229728 C 52.468387 80.638097 52.429649 81.287114 52.224202 81.713359 C 51.93021 82.323265 51.337197 82.090915 51.177755 82.49729 C 50.845255 83.344897 51.988538 84.376514 51.650077 85.221672 C 51.323743 86.036338 49.894263 85.972352 49.524109 86.767314 C 49.226154 87.407282 49.81821 88.211607 49.661568 88.902584 C 49.534687 89.462201 48.686401 89.83103 48.819759 90.395516 C 49.030286 91.286562 50.049885 91.124482 50.453768 91.580973 C 50.795936 91.967848 50.318998 92.65639 50.562288 93.080623 C 50.834831 93.555645 51.631397 93.600208 51.868669 94.093481 C 52.021625 94.412014 51.615692 95.178679 51.776168 95.493396 C 51.909366 95.754468 52.52378 95.817254 52.702726 96.164673 C 53.073198 96.880866 52.505573 97.22023 52.771973 97.641069 C 53.131379 98.207988 54.645893 97.979429 55.450879 98.330432 C 56.346204 98.720881 56.039805 99.354007 56.519031 99.660067 C 57.442205 100.24972 57.604041 99.445064 58.056921 99.695207 C 58.869035 100.14373 58.239652 101.40801 59.602047 102.00824 C 60.080633 102.21908 60.150558 101.21333 60.830912 101.08582 C 61.912535 100.88304 62.699761 101.68616 63.572864 101.42327 C 65.035334 100.98289 64.360635 99.609724 67.011414 98.438953 C 67.524416 98.212376 68.305908 97.374418 68.305908 97.374418 C 68.305908 97.374418 68.830058 95.955005 70.356946 95.180237 C 71.295818 94.703656 72.592996 94.94346 73.390352 94.260396 C 74.270809 93.506137 73.779378 92.745027 74.100903 92.070349 C 74.543113 91.555253 75.412358 91.596705 75.926632 91.153092 C 76.310729 90.821823 75.844557 89.898294 76.213436 89.341317 C 76.729441 88.562173 77.498615 88.656583 78.023661 88.166195 C 78.906741 87.341399 78.129744 86.317627 78.672717 85.768408 C 79.569987 84.86079 80.630913 85.524497 81.298397 84.89611 C 81.471971 84.732669 81.245412 84.577579 81.343872 84.279093 C 81.465214 83.911057 81.82673 83.850764 81.89836 83.55304 C 82.035082 82.984033 81.591402 81.806893 81.591402 81.806893 C 81.591402 81.806893 82.397017 81.37724 82.676607 81.032263 C 83.11119 80.496067 83.507048 79.13057 83.507048 79.13057 C 83.707433 79.297271 83.991554 79.359342 84.462028 79.760506 C 85.059525 80.378448 83.688062 81.74977 84.078589 82.436312 C 84.350304 82.914354 85.858923 82.960188 85.729651 83.491028 C 86.149809 84.683542 83.967758 85.116215 83.917358 86.215926 C 83.896099 86.679759 84.572099 87.464429 84.572099 87.464429 C 84.572099 87.464429 84.141118 88.200796 84.233618 88.584774 C 84.402787 89.28619 85.076978 89.205408 85.076978 89.205408 C 85.187913 89.605442 85.346617 89.976656 85.765824 90.192428 C 86.290532 90.066983 86.794443 89.999924 87.114579 90.445125 C 87.114579 90.445125 88.06536 90.429937 88.466435 90.652348 C 88.868998 90.875733 88.81001 90.932663 89.370256 91.697762 C 89.789687 92.270508 90.178353 93.209749 90.852336 93.596871 C 91.464469 93.948473 92.947298 93.551396 92.947298 93.551396 C 92.947298 93.551396 91.667669 93.244275 91.360832 92.735425 C 91.17967 92.435025 91.528763 92.01344 91.380469 91.696212 C 91.172328 91.250901 90.513468 91.165221 90.233252 90.759835 C 90.060148 90.509429 89.946448 89.897355 89.946448 89.897355 C 89.946448 89.897355 90.437169 89.607394 90.411019 89.371806 C 90.381965 89.110292 89.8876 88.903216 89.620369 88.624048 C 89.502652 88.179866 89.307336 87.826362 89.355786 87.334721 C 89.208466 87.065301 90.550605 86.505878 90.842517 86.105339 C 91.137532 85.7005 90.311782 84.986961 90.341772 84.658915 C 90.563281 83.974621 90.957368 83.942706 91.271431 83.607817 C 91.451863 83.190315 91.121285 82.389814 90.870939 81.649797 C 91.014672 80.998375 91.358216 80.513851 91.786129 80.099504 C 91.786129 80.099504 92.013896 79.347136 91.853825 79.018949 C 91.388257 78.065747 90.540125 78.425198 90.058069 77.913074 C 89.731286 77.566088 89.756641 76.955905 89.386275 76.655786 C 89.083798 76.410682 88.269031 76.332808 88.269031 76.332808 C 88.269031 76.332808 87.630442 75.050981 87.023112 74.799569 C 86.664314 74.651082 85.877962 74.927209 85.877962 74.927209 L 85.149841 74.570125 L 84.358158 74.863647 L 82.332442 74.892069 C 82.176714 75.272584 80.367999 74.494609 79.521761 74.740141 C 77.24501 75.400733 78.499801 76.30032 77.694482 76.686792 C 77.133746 76.955919 76.230818 76.377756 75.820178 76.841821 C 75.333957 77.391351 75.853855 78.332515 75.908545 79.067008 C 75.443042 79.147101 74.8879 79.044415 74.708101 79.71038 C 74.30587 80.826304 74.975038 81.87239 74.50708 82.566536 C 74.349272 83.2144 72.692039 82.933471 71.994055 83.481209 C 71.49502 83.872822 71.714196 84.759581 70.939856 85.064575 C 70.008664 85.533682 69.159408 84.789451 68.699166 85.61803 C 68.504502 86.011367 68.672546 86.748894 68.918791 87.560547 C 68.646876 88.221361 68.10911 88.130466 67.835136 88.530514 C 67.386241 89.185971 68.124994 89.878955 66.99126 90.766553 C 66.599214 90.596781 66.938473 90.510674 66.46416 90.086491 L 64.971745 90.606873 C 64.366726 90.34472 64.960774 89.389672 64.288066 88.988367 C 63.693059 88.633417 62.616238 89.846284 62.241162 89.152698 C 61.943443 88.602136 62.496146 88.356347 63.201827 87.61429 C 63.467871 86.939304 62.974804 86.398334 63.187358 85.615963 L 64.162492 85.067676 C 64.481213 84.825526 64.258511 84.224512 64.244141 83.761812 C 64.460019 83.321374 65.346806 83.214509 65.931376 82.95721 C 66.727605 82.657454 66.032978 81.104658 66.472428 80.492244 C 66.93484 79.847839 68.144999 80.202301 68.708468 79.644234 C 69.09689 79.259572 68.624643 78.716416 69.304297 78.112028 C 69.881002 77.969121 70.463767 77.835394 70.850972 77.385457 C 71.511396 76.378898 71.716877 75.333073 71.524316 74.252832 C 71.842402 73.273923 72.182097 72.323334 72.092757 71.337248 C 71.93894 69.639095 71.753972 67.333965 70.227238 66.574748 C 68.785107 65.857603 65.745845 68.203609 64.358862 67.486837 C 64.333369 67.473651 64.210243 67.352192 64.120117 67.240857 C 63.904006 66.898747 63.637549 66.607401 63.644177 66.044031 C 63.380199 65.792376 63.526858 65.205259 63.883439 64.447746 C 64.257012 63.944674 65.254083 64.634019 65.262683 64.010046 C 65.427524 63.855041 65.187981 63.686138 65.095251 63.543925 C 65.037765 63.455185 64.724367 63.766798 64.682357 63.49845 C 64.806401 63.061368 65.003869 62.596453 65.014119 62.109387 C 64.898198 61.605023 64.831406 61.012018 64.630164 60.947184 L 64.629647 60.947184 C 64.596805 60.941978 64.567379 60.938792 64.540763 60.938399 z " /><path
     style="fill:#ffffff;fill-opacity:1;stroke-width:1.12727"
     d="m 52.473923,57.153914 c -2.038875,0.261623 -6.943958,2.822295 -9.506646,3.296893 -2.597643,0.80981 -5.309011,0.856182 -7.965275,1.368476 -2.680656,0.517005 -4.85129,2.205467 -6.918097,3.925816 -2.470318,2.056216 -5.710698,4.189879 -7.798389,4.791533 -0.914509,0.263549 -2.408028,-0.254889 -2.726173,-0.747505 -0.416561,-0.645088 -0.1412,-2.257371 0.523798,-3.30997 1.289054,-2.040378 3.391651,-2.328935 5.378869,-3.634669 7.65384,-5.029082 10.830532,-3.235812 19.041647,-3.256814 3.106107,-0.0079 6.252128,-1.623639 9.108641,-2.803919 -0.215578,-0.126756 -0.537558,-0.34663 -0.84273,-0.434003 -0.953136,-0.273009 -2.010458,-0.09081 -3.004379,-0.160907 -1.831631,-0.137543 -3.649926,-0.229599 -5.331581,-0.500801 -1.958909,-0.585349 -4.081217,-0.756706 -5.981815,-0.647549 -0.928379,0.05636 -1.83605,0.3339 -2.762156,0.427283 -1.589966,0.160335 -3.188729,0.211863 -4.783809,0.226963 -1.813403,0.01713 -3.646704,0.112477 -5.433813,-0.155119 -3.070229,-0.459732 -5.902171,0.342252 -9.715584,0.505575 -3.250868,0.13922 -5.8231995,-1.644244 -6.0777821,-2.621808 1.3321896,-2.442452 3.7683121,-5.570738 8.9490551,-4.373662 3.869243,2.149771 8.088246,2.235042 11.846787,3.529837 3.26799,1.125802 6.007337,0.662912 8.706318,0.93397 3.281103,0.689654 5.002926,1.667652 8.528891,1.885756 1.003593,0.07571 1.968315,0.402883 2.966379,0.52399 0.563243,0.06829 0.929764,-0.05768 1.700449,0.113774 -0.865022,-0.209147 -2.26368,-1.628388 -3.476841,-2.316154 -4.012863,-2.454915 -8.612293,-3.670038 -13.067435,-3.660888 -2.600949,-0.07532 -5.291469,0.904526 -7.587637,0.09149 -1.315769,-0.498018 -2.049651,-1.296972 -1.001807,-2.476156 0.743778,-0.822934 1.871611,-1.307392 2.954671,-1.547369 1.836203,-0.406865 3.778792,-0.09401 5.607659,0.270907 3.555008,0.69739 6.379169,2.543787 9.126354,4.321871 1.423449,0.915602 3.139563,1.954155 4.55442,2.882437 1.678002,1.258676 2.892349,2.153792 4.625124,2.901479 0.22223,0.117849 0.431201,0.250576 0.650008,0.382073 -0.07497,0.09197 -0.226008,0.260137 -0.287173,0.267255 z"
     id="path1044"
     sodipodi:nodetypes="ccssssssscscccssssccsccscccccscccccc"
     inkscape:label="Grünalge Ulva linza" /></svg>
